# xmcd
#
# Track frame offsets:
#	150
#	16347
#	31288
#	45010
#	60444
#	74450
#	89104
#	104035
#	119390
#
# Disc length: 1791 seconds
#
# Revision: 0
# Processed by: cddbd v1.5.2PL0 Copyright (c) Steve Scherf et al.
# Submitted via: EasyCDDAExtractor 16.0.8.2
#
DISCID=7406fd09
DTITLE=Συλλογικός δίσκος - Ιστορία ρεμπέτικου και λαϊκού 05-3
DYEAR=2007
DGENRE=Ποικίλη
TTITLE0=Χασκίλ Στέλλα - Νύχτωσε χωρίς φεγγάρι [Απ. Καλδάρας]
TTITLE1=Τσαουσάκης Πρόδρομος - Το ρημαγμένο σπίτι [Βασ. Τσιτσάνης]
TTITLE2=Χασκίλ Στέλλα-Βαμβακάρης Μ.-Τσιτσάνης Β. - Κάποια μάννα αναστενάζει [Β
TTITLE2=Τσιτσάνης-Μ. Μπακάλης]
TTITLE3=Μητσάκης Γιώργος-Γεωργακοπούλου Ι. - Το καπηλειό [Γ. Μητσάκης]
TTITLE4=Μοσχονάς Οδυσσέας - Πέντε Έλληνες στον Άδη [Γ. Παπαϊωάννου-Κ. Μάνεσης]
TTITLE5=Μπέλλου Σωτηρία-Τσιτσάνης Βασίλης - Όταν πίνεις στην ταβέρνα [Β. Τσιτσ
TTITLE5=άνης]
TTITLE6=Βαμβακάρης Μάρκος-Χατζηχρήστος Απόστολος - Ματσάκια πεντοχίλιαρα [Μ. Β
TTITLE6=αμβακάρης]
TTITLE7=Χασκίλ Στέλλα-Κυριαζής Γιάννης - Παραστρατημένη [Απ. Καλδάρας]
TTITLE8=Χασκίλ Στέλλα - Μπιρ αλλάχ [Ιωάννης Σταμούλης]
EXTD=
EXTT0=
EXTT1=
EXTT2=
EXTT3=
EXTT4=
EXTT5=
EXTT6=
EXTT7=
EXTT8=
PLAYORDER=
